<?xml version="1.0" encoding="UTF-8" standalone="no"?>
<!DOCTYPE svg PUBLIC "-//W3C//DTD SVG 1.1//EN"
 "http://www.w3.org/Graphics/SVG/1.1/DTD/svg11.dtd">
<!-- Generated by graphviz version 2.43.0 (0)
 -->
<!-- Title: hierarchy Pages: 1 -->
<svg width="331pt" height="638pt"
 viewBox="0.00 0.00 331.00 638.00" xmlns="http://www.w3.org/2000/svg" xmlns:xlink="http://www.w3.org/1999/xlink">
<g id="graph0" class="graph" transform="scale(1 1) rotate(0) translate(4 634)">
<title>hierarchy</title>
<polygon fill="white" stroke="transparent" points="-4,4 -4,-634 327,-634 327,4 -4,4"/>
<!-- BasePlugin -->
<g id="node1" class="node">
<title>BasePlugin</title>
<polygon fill="none" stroke="black" points="313,-171 216,-171 216,-135 313,-135 313,-171"/>
<text text-anchor="middle" x="264.5" y="-149.3" font-family="Times,serif" font-size="14.00">BasePlugin</text>
</g>
<!-- ResourcePlugin -->
<g id="node2" class="node">
<title>ResourcePlugin</title>
<polygon fill="none" stroke="black" points="149,-306 21,-306 21,-270 149,-270 149,-306"/>
<text text-anchor="middle" x="85" y="-284.3" font-family="Times,serif" font-size="14.00">ResourcePlugin</text>
</g>
<!-- ResourcePlugin&#45;&gt;BasePlugin -->
<g id="edge1" class="edge">
<title>ResourcePlugin&#45;&gt;BasePlugin</title>
<path fill="none" stroke="black" d="M149.23,-271.89C156.51,-268.83 163.61,-265.22 170,-261 202.24,-239.68 229.88,-204.29 246.57,-179.86"/>
<polygon fill="black" stroke="black" points="249.58,-181.67 252.22,-171.41 243.75,-177.78 249.58,-181.67"/>
</g>
<!-- ToolPlugin -->
<g id="node3" class="node">
<title>ToolPlugin</title>
<polygon fill="none" stroke="black" points="131,-252 39,-252 39,-216 131,-216 131,-252"/>
<text text-anchor="middle" x="85" y="-230.3" font-family="Times,serif" font-size="14.00">ToolPlugin</text>
</g>
<!-- ToolPlugin&#45;&gt;BasePlugin -->
<g id="edge2" class="edge">
<title>ToolPlugin&#45;&gt;BasePlugin</title>
<path fill="none" stroke="black" d="M131.13,-221.44C143.9,-217.36 157.68,-212.46 170,-207 189.37,-198.41 209.87,-186.87 226.72,-176.67"/>
<polygon fill="black" stroke="black" points="228.99,-179.38 235.68,-171.17 225.33,-173.42 228.99,-179.38"/>
</g>
<!-- PromptPlugin -->
<g id="node4" class="node">
<title>PromptPlugin</title>
<polygon fill="none" stroke="black" points="143,-198 27,-198 27,-162 143,-162 143,-198"/>
<text text-anchor="middle" x="85" y="-176.3" font-family="Times,serif" font-size="14.00">PromptPlugin</text>
</g>
<!-- PromptPlugin&#45;&gt;BasePlugin -->
<g id="edge3" class="edge">
<title>PromptPlugin&#45;&gt;BasePlugin</title>
<path fill="none" stroke="black" d="M143.14,-171.31C163.25,-168.25 185.86,-164.81 206,-161.75"/>
<polygon fill="black" stroke="black" points="206.62,-165.19 215.98,-160.23 205.56,-158.27 206.62,-165.19"/>
</g>
<!-- AdapterPlugin -->
<g id="node5" class="node">
<title>AdapterPlugin</title>
<polygon fill="none" stroke="black" points="144.5,-144 25.5,-144 25.5,-108 144.5,-108 144.5,-144"/>
<text text-anchor="middle" x="85" y="-122.3" font-family="Times,serif" font-size="14.00">AdapterPlugin</text>
</g>
<!-- AdapterPlugin&#45;&gt;BasePlugin -->
<g id="edge4" class="edge">
<title>AdapterPlugin&#45;&gt;BasePlugin</title>
<path fill="none" stroke="black" d="M144.61,-134.92C164.3,-137.91 186.24,-141.25 205.86,-144.23"/>
<polygon fill="black" stroke="black" points="205.47,-147.71 215.88,-145.76 206.52,-140.79 205.47,-147.71"/>
</g>
<!-- FailurePlugin -->
<g id="node6" class="node">
<title>FailurePlugin</title>
<polygon fill="none" stroke="black" points="141.5,-90 28.5,-90 28.5,-54 141.5,-54 141.5,-90"/>
<text text-anchor="middle" x="85" y="-68.3" font-family="Times,serif" font-size="14.00">FailurePlugin</text>
</g>
<!-- FailurePlugin&#45;&gt;BasePlugin -->
<g id="edge5" class="edge">
<title>FailurePlugin&#45;&gt;BasePlugin</title>
<path fill="none" stroke="black" d="M141.75,-88.08C151.31,-91.35 161.04,-95.03 170,-99 189.37,-107.59 209.87,-119.13 226.72,-129.33"/>
<polygon fill="black" stroke="black" points="225.33,-132.58 235.68,-134.83 228.99,-126.62 225.33,-132.58"/>
</g>
<!-- AutoGeneratedPlugin -->
<g id="node7" class="node">
<title>AutoGeneratedPlugin</title>
<polygon fill="none" stroke="black" points="170,-36 0,-36 0,0 170,0 170,-36"/>
<text text-anchor="middle" x="85" y="-14.3" font-family="Times,serif" font-size="14.00">AutoGeneratedPlugin</text>
</g>
<!-- AutoGeneratedPlugin&#45;&gt;BasePlugin -->
<g id="edge6" class="edge">
<title>AutoGeneratedPlugin&#45;&gt;BasePlugin</title>
<path fill="none" stroke="black" d="M153.57,-36.01C159.32,-38.64 164.89,-41.62 170,-45 202.24,-66.32 229.88,-101.71 246.57,-126.14"/>
<polygon fill="black" stroke="black" points="243.75,-128.22 252.22,-134.59 249.58,-124.33 243.75,-128.22"/>
</g>
<!-- BaseResource -->
<g id="node8" class="node">
<title>BaseResource</title>
<polygon fill="none" stroke="black" points="323,-414 206,-414 206,-378 323,-378 323,-414"/>
<text text-anchor="middle" x="264.5" y="-392.3" font-family="Times,serif" font-size="14.00">BaseResource</text>
</g>
<!-- StorageBackend -->
<g id="node9" class="node">
<title>StorageBackend</title>
<polygon fill="none" stroke="black" points="152,-468 18,-468 18,-432 152,-432 152,-468"/>
<text text-anchor="middle" x="85" y="-446.3" font-family="Times,serif" font-size="14.00">StorageBackend</text>
</g>
<!-- DatabaseResource -->
<g id="node10" class="node">
<title>DatabaseResource</title>
<polygon fill="none" stroke="black" points="159.5,-414 10.5,-414 10.5,-378 159.5,-378 159.5,-414"/>
<text text-anchor="middle" x="85" y="-392.3" font-family="Times,serif" font-size="14.00">DatabaseResource</text>
</g>
<!-- DatabaseResource&#45;&gt;BaseResource -->
<g id="edge7" class="edge">
<title>DatabaseResource&#45;&gt;BaseResource</title>
<path fill="none" stroke="black" d="M159.73,-396C171.67,-396 183.98,-396 195.76,-396"/>
<polygon fill="black" stroke="black" points="195.96,-399.5 205.96,-396 195.96,-392.5 195.96,-399.5"/>
</g>
<!-- FileSystemResource -->
<g id="node11" class="node">
<title>FileSystemResource</title>
<polygon fill="none" stroke="black" points="166.5,-522 3.5,-522 3.5,-486 166.5,-486 166.5,-522"/>
<text text-anchor="middle" x="85" y="-500.3" font-family="Times,serif" font-size="14.00">FileSystemResource</text>
</g>
<!-- VectorStore -->
<g id="node12" class="node">
<title>VectorStore</title>
<polygon fill="none" stroke="black" points="315,-360 214,-360 214,-324 315,-324 315,-360"/>
<text text-anchor="middle" x="264.5" y="-338.3" font-family="Times,serif" font-size="14.00">VectorStore</text>
</g>
<!-- VectorStoreResource -->
<g id="node13" class="node">
<title>VectorStoreResource</title>
<polygon fill="none" stroke="black" points="168.5,-360 1.5,-360 1.5,-324 168.5,-324 168.5,-360"/>
<text text-anchor="middle" x="85" y="-338.3" font-family="Times,serif" font-size="14.00">VectorStoreResource</text>
</g>
<!-- VectorStoreResource&#45;&gt;BaseResource -->
<g id="edge8" class="edge">
<title>VectorStoreResource&#45;&gt;BaseResource</title>
<path fill="none" stroke="black" d="M145.6,-360.13C161.85,-365.07 179.56,-370.46 196.21,-375.53"/>
<polygon fill="black" stroke="black" points="195.28,-378.9 205.86,-378.47 197.32,-372.21 195.28,-378.9"/>
</g>
<!-- VectorStoreResource&#45;&gt;VectorStore -->
<g id="edge9" class="edge">
<title>VectorStoreResource&#45;&gt;VectorStore</title>
<path fill="none" stroke="black" d="M168.51,-342C180.3,-342 192.23,-342 203.47,-342"/>
<polygon fill="black" stroke="black" points="203.58,-345.5 213.58,-342 203.58,-338.5 203.58,-345.5"/>
</g>
<!-- LLM -->
<g id="node14" class="node">
<title>LLM</title>
<polygon fill="none" stroke="black" points="291.5,-576 237.5,-576 237.5,-540 291.5,-540 291.5,-576"/>
<text text-anchor="middle" x="264.5" y="-554.3" font-family="Times,serif" font-size="14.00">LLM</text>
</g>
<!-- BaseProvider -->
<g id="node15" class="node">
<title>BaseProvider</title>
<polygon fill="none" stroke="black" points="141.5,-576 28.5,-576 28.5,-540 141.5,-540 141.5,-576"/>
<text text-anchor="middle" x="85" y="-554.3" font-family="Times,serif" font-size="14.00">BaseProvider</text>
</g>
<!-- BaseProvider&#45;&gt;LLM -->
<g id="edge10" class="edge">
<title>BaseProvider&#45;&gt;LLM</title>
<path fill="none" stroke="black" d="M141.68,-558C169.48,-558 202.35,-558 226.93,-558"/>
<polygon fill="black" stroke="black" points="227.26,-561.5 237.26,-558 227.26,-554.5 227.26,-561.5"/>
</g>
<!-- HttpLLMResource -->
<g id="node16" class="node">
<title>HttpLLMResource</title>
<polygon fill="none" stroke="black" points="159,-630 11,-630 11,-594 159,-594 159,-630"/>
<text text-anchor="middle" x="85" y="-608.3" font-family="Times,serif" font-size="14.00">HttpLLMResource</text>
</g>
</g>
</svg>
